<svg width="15" height="11" viewBox="0 0 15 11" fill="none" xmlns="http://www.w3.org/2000/svg">
<path fill-rule="evenodd" clip-rule="evenodd" d="M0.197904 6.05C0.0899141 5.94 0.0359192 5.775 0.0359192 5.665C0.0359192 5.555 0.0899141 5.39 0.197904 5.28L0.953833 4.51C1.16981 4.29 1.49378 4.29 1.70976 4.51L1.76376 4.565L4.73348 7.81C4.84147 7.92 5.00345 7.92 5.11144 7.81L12.3468 0.165H12.4008C12.6167 -0.055 12.9407 -0.055 13.1567 0.165L13.9126 0.935C14.1286 1.155 14.1286 1.485 13.9126 1.705L5.27342 10.835C5.16543 10.945 5.05745 11 4.89546 11C4.73348 11 4.62549 10.945 4.5175 10.835L0.305894 6.215L0.197904 6.05Z" fill="white"/>
</svg>
